<mxfile host="app.diagrams.net" modified="2022-02-17T00:09:35.737Z" agent="5.0 (Windows NT 10.0; Win64; x64) AppleWebKit/537.36 (KHTML, like Gecko) Chrome/98.0.4758.80 Safari/537.36 Edg/98.0.1108.50" etag="dgeZlT59OMmZfJG3_FmL" version="16.5.6" type="github">
  <diagram id="X8-0IzTmptxk7qB5Lh5X" name="Page-1">
    <mxGraphModel dx="1422" dy="794" grid="1" gridSize="10" guides="1" tooltips="1" connect="1" arrows="1" fold="1" page="1" pageScale="1" pageWidth="850" pageHeight="1100" math="0" shadow="0">
      <root>
        <mxCell id="0" />
        <mxCell id="1" parent="0" />
        <mxCell id="hl7_Vgx6eJ32oMdw53TU-1" value="Instructions" style="rounded=1;whiteSpace=wrap;html=1;" vertex="1" parent="1">
          <mxGeometry x="380" y="70" width="120" height="60" as="geometry" />
        </mxCell>
        <mxCell id="hl7_Vgx6eJ32oMdw53TU-2" value="" style="endArrow=classic;startArrow=classic;html=1;rounded=0;entryX=0.5;entryY=1;entryDx=0;entryDy=0;" edge="1" parent="1" target="hl7_Vgx6eJ32oMdw53TU-1">
          <mxGeometry width="50" height="50" relative="1" as="geometry">
            <mxPoint x="440" y="320" as="sourcePoint" />
            <mxPoint x="450" y="380" as="targetPoint" />
          </mxGeometry>
        </mxCell>
        <mxCell id="hl7_Vgx6eJ32oMdw53TU-3" value="Instructions on How to Use" style="rounded=1;whiteSpace=wrap;html=1;" vertex="1" parent="1">
          <mxGeometry x="340" y="320" width="200" height="100" as="geometry" />
        </mxCell>
        <mxCell id="hl7_Vgx6eJ32oMdw53TU-4" value="" style="endArrow=classic;startArrow=classic;html=1;rounded=0;entryX=0.25;entryY=1;entryDx=0;entryDy=0;exitX=0.5;exitY=0;exitDx=0;exitDy=0;" edge="1" parent="1" source="hl7_Vgx6eJ32oMdw53TU-7" target="hl7_Vgx6eJ32oMdw53TU-3">
          <mxGeometry width="50" height="50" relative="1" as="geometry">
            <mxPoint x="220" y="560" as="sourcePoint" />
            <mxPoint x="450" y="380" as="targetPoint" />
          </mxGeometry>
        </mxCell>
        <mxCell id="hl7_Vgx6eJ32oMdw53TU-5" value="" style="endArrow=classic;startArrow=classic;html=1;rounded=0;entryX=0.75;entryY=1;entryDx=0;entryDy=0;exitX=0.406;exitY=-0.011;exitDx=0;exitDy=0;exitPerimeter=0;" edge="1" parent="1" source="hl7_Vgx6eJ32oMdw53TU-6" target="hl7_Vgx6eJ32oMdw53TU-3">
          <mxGeometry width="50" height="50" relative="1" as="geometry">
            <mxPoint x="590" y="570" as="sourcePoint" />
            <mxPoint x="450" y="380" as="targetPoint" />
          </mxGeometry>
        </mxCell>
        <mxCell id="hl7_Vgx6eJ32oMdw53TU-6" value="Back to REST-RANT app&amp;nbsp;&lt;br&gt;(button) - Attached to link to page" style="rounded=1;whiteSpace=wrap;html=1;" vertex="1" parent="1">
          <mxGeometry x="560" y="580" width="160" height="90" as="geometry" />
        </mxCell>
        <mxCell id="hl7_Vgx6eJ32oMdw53TU-7" value="Back to Product Page&amp;nbsp;&lt;br&gt;(button) - Attached to link to page" style="rounded=1;whiteSpace=wrap;html=1;" vertex="1" parent="1">
          <mxGeometry x="120" y="590" width="170" height="90" as="geometry" />
        </mxCell>
      </root>
    </mxGraphModel>
  </diagram>
</mxfile>
